HIERARCHY
ROOT Hips
{
	OFFSET 0.000000 83.214638 0.000000
	CHANNELS 6 Xposition Yposition Zposition Xrotation Yrotation Zrotation
	JOINT Pelvis
	{
		OFFSET 0.000000 0.000000 0.000000
		CHANNELS 3 Xrotation Yrotation Zrotation
		JOINT LeftUpLeg
		{
			OFFSET 8.479700 -4.795502 -0.379100
			CHANNELS 3 Xrotation Yrotation Zrotation
			JOINT LeftLeg
			{
				OFFSET 0.024144 -32.555107 0.112900
				CHANNELS 3 Xrotation Yrotation Zrotation
				JOINT LeftFoot
				{
					OFFSET -0.024144 -32.638630 -3.012600
					CHANNELS 3 Xrotation Yrotation Zrotation
					JOINT LeftToeBase
					{
						OFFSET 0.970200 -13.225400 11.864200
						CHANNELS 3 Xrotation Yrotation Zrotation
						End Site
						{
							OFFSET 0.000000 12.319262 0.000000
						}
					}
					JOINT LFootTongue
					{
						OFFSET 1.142400 -1.059800 6.665200
						CHANNELS 3 Xrotation Yrotation Zrotation
						End Site
						{
							OFFSET 0.000000 12.319262 0.000000
						}
					}
				}
				JOINT LeftPantLeg
				{
					OFFSET 0.918482 -16.533964 -2.284700
					CHANNELS 3 Xrotation Yrotation Zrotation
					End Site
					{
						OFFSET 0.350399 24.744368 0.000000
					}
				}
			}
		}
		JOINT RightUpLeg
		{
			OFFSET -8.479700 -4.795502 -0.379100
			CHANNELS 3 Xrotation Yrotation Zrotation
			JOINT RightLeg
			{
				OFFSET -0.023144 -32.555092 0.112900
				CHANNELS 3 Xrotation Yrotation Zrotation
				JOINT RightFoot
				{
					OFFSET 0.023144 -32.638641 -3.012700
					CHANNELS 3 Xrotation Yrotation Zrotation
					JOINT RightToeBase
					{
						OFFSET -0.970200 -13.225400 11.864200
						CHANNELS 3 Xrotation Yrotation Zrotation
						End Site
						{
							OFFSET 0.000000 12.319244 0.000000
						}
					}
					JOINT RFootTongue
					{
						OFFSET -1.142200 -1.059800 6.665200
						CHANNELS 3 Xrotation Yrotation Zrotation
						End Site
						{
							OFFSET 0.000000 12.319243 0.000000
						}
					}
				}
				JOINT RightPantLeg
				{
					OFFSET -0.919482 -16.533978 -2.284800
					CHANNELS 3 Xrotation Yrotation Zrotation
					End Site
					{
						OFFSET -0.350400 24.744419 0.000000
					}
				}
			}
		}
	}
	JOINT Spine
	{
		OFFSET 0.000000 7.722000 1.166200
		CHANNELS 3 Xrotation Yrotation Zrotation
		JOINT Spine1
		{
			OFFSET 0.000000 12.024101 0.248800
			CHANNELS 3 Xrotation Yrotation Zrotation
			JOINT Spine2
			{
				OFFSET 0.000000 11.502998 -0.491200
				CHANNELS 3 Xrotation Yrotation Zrotation
				JOINT Neck
				{
					OFFSET 0.000000 18.430702 -3.123100
					CHANNELS 3 Xrotation Yrotation Zrotation
					JOINT Head
					{
						OFFSET 0.000000 9.051102 1.034000
						CHANNELS 3 Xrotation Yrotation Zrotation
						JOINT HairB
						{
							OFFSET 0.208400 24.786102 24.822300
							CHANNELS 3 Xrotation Yrotation Zrotation
							End Site
							{
								OFFSET 0.000000 32.263779 0.000000
							}
						}
						JOINT HairA
						{
							OFFSET -7.081100 24.428299 23.196600
							CHANNELS 3 Xrotation Yrotation Zrotation
							End Site
							{
								OFFSET 0.000000 32.263779 0.000000
							}
						}
						JOINT Hat
						{
							OFFSET 16.728800 15.048294 -15.439601
							CHANNELS 3 Xrotation Yrotation Zrotation
							End Site
							{
								OFFSET 0.000000 32.263779 0.000000
							}
						}
					}
				}
				JOINT LeftShoulder
				{
					OFFSET 6.197800 13.665199 -4.064700
					CHANNELS 3 Xrotation Yrotation Zrotation
					JOINT LeftArm
					{
						OFFSET 7.778100 -0.187103 -1.709300
						CHANNELS 3 Xrotation Yrotation Zrotation
						JOINT LeftForeArm
						{
							OFFSET 22.049376 0.000000 0.000000
							CHANNELS 3 Xrotation Yrotation Zrotation
							JOINT LeftHand
							{
								OFFSET 23.009392 0.000000 0.000000
								CHANNELS 3 Xrotation Yrotation Zrotation
								JOINT LeftHandThumb1
								{
									OFFSET 3.507191 -2.063065 3.133727
									CHANNELS 3 Xrotation Yrotation Zrotation
									JOINT LeftHandThumb2
									{
										OFFSET 3.101337 -1.790558 1.790558
										CHANNELS 3 Xrotation Yrotation Zrotation
										JOINT LeftHandThumb3
										{
											OFFSET 3.058640 -1.765907 1.765906
											CHANNELS 3 Xrotation Yrotation Zrotation
											End Site
											{
												OFFSET -0.415260 3.926476 -0.049563
											}
										}
									}
								}
								JOINT LeftHandIndex1
								{
									OFFSET 11.334419 -0.901459 3.706815
									CHANNELS 3 Xrotation Yrotation Zrotation
									JOINT LeftHandIndex2
									{
										OFFSET 3.283112 0.000000 0.000000
										CHANNELS 3 Xrotation Yrotation Zrotation
										JOINT LeftHandIndex3
										{
											OFFSET 3.323853 0.000000 0.000000
											CHANNELS 3 Xrotation Yrotation Zrotation
											End Site
											{
												OFFSET -1.135597 3.097809 0.402452
											}
										}
									}
								}
								JOINT LeftHandMiddle1
								{
									OFFSET 11.335861 0.000000 0.000000
									CHANNELS 3 Xrotation Yrotation Zrotation
									JOINT LeftHandMiddle2
									{
										OFFSET 3.410492 0.000000 0.000000
										CHANNELS 3 Xrotation Yrotation Zrotation
										JOINT LeftHandMiddle3
										{
											OFFSET 3.312172 0.000000 0.000000
											CHANNELS 3 Xrotation Yrotation Zrotation
											End Site
											{
												OFFSET -1.150200 3.080154 0.400270
											}
										}
									}
								}
								JOINT LeftHandRing1
								{
									OFFSET 11.514786 -0.013176 -3.003090
									CHANNELS 3 Xrotation Yrotation Zrotation
									JOINT LeftHandRing2
									{
										OFFSET 3.053307 0.000000 0.000000
										CHANNELS 3 Xrotation Yrotation Zrotation
										JOINT LeftHandRing3
										{
											OFFSET 3.295807 0.000000 0.000000
											CHANNELS 3 Xrotation Yrotation Zrotation
											End Site
											{
												OFFSET -1.281006 3.013344 0.375733
											}
										}
									}
								}
								JOINT LeftHandPinky1
								{
									OFFSET 10.518692 -0.960396 -5.730441
									CHANNELS 3 Xrotation Yrotation Zrotation
									JOINT LeftHandPinky2
									{
										OFFSET 2.861649 0.000000 0.000000
										CHANNELS 3 Xrotation Yrotation Zrotation
										JOINT LeftHandPinky3
										{
											OFFSET 2.863380 0.000000 0.000000
											CHANNELS 3 Xrotation Yrotation Zrotation
											End Site
											{
												OFFSET -0.843597 2.711159 0.369971
											}
										}
									}
								}
							}
							JOINT LSleeve
							{
								OFFSET 6.676277 -0.344902 -1.011730
								CHANNELS 3 Xrotation Yrotation Zrotation
								End Site
								{
									OFFSET 0.000000 14.885353 0.000000
								}
							}
						}
					}
				}
				JOINT RightShoulder
				{
					OFFSET -6.197800 13.665199 -4.064700
					CHANNELS 3 Xrotation Yrotation Zrotation
					JOINT RightArm
					{
						OFFSET -7.778100 -0.187103 -1.709300
						CHANNELS 3 Xrotation Yrotation Zrotation
						JOINT RightForeArm
						{
							OFFSET -22.049376 0.000000 0.000000
							CHANNELS 3 Xrotation Yrotation Zrotation
							JOINT RightHand
							{
								OFFSET -23.009392 0.000000 0.000000
								CHANNELS 3 Xrotation Yrotation Zrotation
								JOINT RightHandThumb1
								{
									OFFSET -3.507191 -2.063065 3.133727
									CHANNELS 3 Xrotation Yrotation Zrotation
									JOINT RightHandThumb2
									{
										OFFSET -3.101337 -1.790558 1.790558
										CHANNELS 3 Xrotation Yrotation Zrotation
										JOINT RightHandThumb3
										{
											OFFSET -3.058640 -1.765907 1.765906
											CHANNELS 3 Xrotation Yrotation Zrotation
											End Site
											{
												OFFSET 0.415260 3.926476 -0.049563
											}
										}
									}
								}
								JOINT RightHandIndex1
								{
									OFFSET -11.334419 -0.901459 3.706815
									CHANNELS 3 Xrotation Yrotation Zrotation
									JOINT RightHandIndex2
									{
										OFFSET -3.283112 0.000000 0.000000
										CHANNELS 3 Xrotation Yrotation Zrotation
										JOINT RightHandIndex3
										{
											OFFSET -3.323853 0.000000 0.000000
											CHANNELS 3 Xrotation Yrotation Zrotation
											End Site
											{
												OFFSET 1.135597 3.097809 0.402452
											}
										}
									}
								}
								JOINT RightHandMiddle1
								{
									OFFSET -11.335861 0.000000 0.000000
									CHANNELS 3 Xrotation Yrotation Zrotation
									JOINT RightHandMiddle2
									{
										OFFSET -3.410492 0.000000 0.000000
										CHANNELS 3 Xrotation Yrotation Zrotation
										JOINT RightHandMiddle3
										{
											OFFSET -3.312172 0.000000 0.000000
											CHANNELS 3 Xrotation Yrotation Zrotation
											End Site
											{
												OFFSET 1.150200 3.080154 0.400270
											}
										}
									}
								}
								JOINT RightHandRing1
								{
									OFFSET -11.514786 -0.013176 -3.003090
									CHANNELS 3 Xrotation Yrotation Zrotation
									JOINT RightHandRing2
									{
										OFFSET -3.053307 0.000000 0.000000
										CHANNELS 3 Xrotation Yrotation Zrotation
										JOINT RightHandRing3
										{
											OFFSET -3.295807 0.000000 0.000000
											CHANNELS 3 Xrotation Yrotation Zrotation
											End Site
											{
												OFFSET 1.281006 3.013344 0.375733
											}
										}
									}
								}
								JOINT RightHandPinky1
								{
									OFFSET -10.518692 -0.960396 -5.730441
									CHANNELS 3 Xrotation Yrotation Zrotation
									JOINT RightHandPinky2
									{
										OFFSET -2.861649 0.000000 0.000000
										CHANNELS 3 Xrotation Yrotation Zrotation
										JOINT RightHandPinky3
										{
											OFFSET -2.863380 0.000000 0.000000
											CHANNELS 3 Xrotation Yrotation Zrotation
											End Site
											{
												OFFSET 0.843597 2.711159 0.369971
											}
										}
									}
								}
							}
							JOINT RSleeve
							{
								OFFSET -6.676277 -0.344902 -1.011730
								CHANNELS 3 Xrotation Yrotation Zrotation
								End Site
								{
									OFFSET 0.000000 14.885353 0.000000
								}
							}
						}
					}
				}
				JOINT Backpack
				{
					OFFSET 0.000000 -2.471497 36.677502
					CHANNELS 3 Xrotation Yrotation Zrotation
					End Site
					{
						OFFSET 0.000000 20.427315 0.000000
					}
				}
				JOINT Hood
				{
					OFFSET 0.000000 18.754097 -10.431000
					CHANNELS 3 Xrotation Yrotation Zrotation
					JOINT Hood1
					{
						OFFSET 0.000000 -5.011002 -7.685901
						CHANNELS 3 Xrotation Yrotation Zrotation
						End Site
						{
							OFFSET 0.000000 9.175140 0.000000
						}
					}
				}
				JOINT LHoodieString
				{
					OFFSET 5.250500 16.397697 3.089900
					CHANNELS 3 Xrotation Yrotation Zrotation
					JOINT LHoodieString1
					{
						OFFSET 0.257700 -6.364304 3.694600
						CHANNELS 3 Xrotation Yrotation Zrotation
						JOINT LHoodieString2
						{
							OFFSET 0.000000 -9.643799 2.679100
							CHANNELS 3 Xrotation Yrotation Zrotation
							End Site
							{
								OFFSET 0.000000 10.009018 0.000000
							}
						}
					}
				}
				JOINT RHoodieString
				{
					OFFSET -5.250500 16.397697 3.089900
					CHANNELS 3 Xrotation Yrotation Zrotation
					JOINT RHoodieString1
					{
						OFFSET -0.257700 -6.364304 3.694600
						CHANNELS 3 Xrotation Yrotation Zrotation
						JOINT RHoodieString2
						{
							OFFSET 0.000000 -9.643799 2.679100
							CHANNELS 3 Xrotation Yrotation Zrotation
							End Site
							{
								OFFSET 0.000000 10.009018 0.000000
							}
						}
					}
				}
			}
			JOINT LBackpack_Strap
			{
				OFFSET 15.223200 -7.719803 -6.610900
				CHANNELS 3 Xrotation Yrotation Zrotation
				End Site
				{
					OFFSET 0.000000 16.040596 0.000000
				}
			}
			JOINT RBackpack_Strap
			{
				OFFSET -15.223000 -7.719803 -6.610900
				CHANNELS 3 Xrotation Yrotation Zrotation
				End Site
				{
					OFFSET 0.000000 16.040596 0.000000
				}
			}
		}
	}
	JOINT BoyFacialAnim_Joint
	{
		OFFSET 1.000000 -82.208099 -1.550900
		CHANNELS 3 Xrotation Yrotation Zrotation
		End Site
		{
			OFFSET 0.000000 30.012791 0.000000
		}
	}
}
MOTION
Frames: 4
Frame Time: 0.033333
-0.743363 71.023155 1.813406 -12.685476 1.800431 -6.917956 -0.000000 0.000000 -0.000000 -23.016612 2.283240 19.252925 67.151845 -6.010261 3.135491 -32.153669 2.039432 -6.720987 0.000000 -0.000000 -0.000000 0.000000 -0.000000 -0.000000 0.000001 0.000000 -0.000001 -19.311907 -8.914251 -5.621111 61.636583 1.391290 1.998941 -28.606651 -1.352214 4.663147 -0.000000 0.000000 0.000000 -0.000000 0.000000 0.000000 -0.000002 0.000001 -0.000000 7.469450 -2.241958 -4.086965 2.552680 -0.313552 0.737086 2.562603 -0.280492 0.729356 8.916307 -0.079591 2.667158 2.774780 1.043945 3.384089 -0.000000 -0.000000 -0.000000 -0.000000 -0.000000 -0.000000 -0.000000 -0.000000 -0.000000 0.506731 -1.371744 -5.181654 -4.189410 11.897452 -50.773854 0.000003 -122.681030 0.000001 14.955942 10.812036 13.691292 0.144727 17.585517 -28.890058 -0.448925 -0.032155 7.569758 0.000002 -0.000001 0.000000 2.590621 -12.515335 11.857358 0.520482 2.630691 -22.378799 -0.000000 0.000001 -0.000005 0.576921 -5.461798 5.986497 1.063400 3.681099 -32.215786 0.000003 -0.000001 0.000002 4.135313 12.738124 -19.151862 2.016010 4.872133 -44.937669 -0.000000 0.000000 -0.000006 11.849638 16.273272 -40.641128 0.892852 -0.684434 -29.722944 0.000003 0.000000 0.000003 0.000000 -0.000001 0.000001 0.716572 6.117561 4.189300 15.486785 -18.877111 54.140666 0.000038 114.770018 -0.000028 17.883925 4.903312 -34.554788 -3.340386 -9.343858 23.947084 -5.953333 -7.832593 -13.141589 -0.000000 0.000000 -0.000001 3.118069 12.469454 -14.395797 0.303073 -2.034288 16.945491 0.000001 -0.000001 0.000003 -0.019730 9.758691 0.685004 0.537724 -2.685804 22.639424 0.000003 0.000002 -0.000002 1.332135 -5.024963 19.907288 2.732868 -5.528468 52.582280 -0.000003 -0.000000 0.000002 3.556239 -6.955535 39.311075 1.130945 -3.806164 33.086362 -0.000000 -0.000001 -0.000002 -0.000001 -0.000000 0.000000 -0.000000 0.000000 -0.000001 -0.000000 0.000000 -0.000001 -0.000000 0.000000 -0.000001 -0.000000 0.000000 -0.000001 -0.000000 0.000000 -0.000001 0.000000 0.000000 -0.000001 -0.000000 0.000000 -0.000001 -0.000000 0.000000 -0.000001 0.000000 0.000000 -0.000001 -0.000000 -0.000000 -0.000001 -0.000000 -0.000000 -0.000001 -0.000000 0.000000 -0.000000 
-0.727108 71.018486 1.861408 -12.623596 1.781096 -6.911544 -0.000000 -0.000000 -0.000000 -23.030493 2.290513 19.237619 67.162596 -5.981545 3.115864 -32.209731 2.041204 -6.717768 0.000000 0.000000 -0.000000 0.000000 0.000000 0.000000 -0.000001 -0.000001 -0.000000 -19.342857 -8.899241 -5.634363 61.649868 1.405372 1.979856 -28.652889 -1.362414 4.687388 -0.000000 0.000001 0.000000 -0.000000 0.000001 0.000000 -0.000000 0.000000 -0.000001 7.487492 -2.221252 -4.056273 2.552177 -0.310808 0.718084 2.561966 -0.278050 0.710453 8.920044 -0.076193 2.678067 2.750406 1.085332 3.343129 -0.000000 -0.000000 0.000000 -0.000000 -0.000000 0.000000 -0.000000 -0.000000 0.000000 0.506800 -1.383504 -5.159949 -4.447325 11.731430 -50.758810 0.000028 -122.786598 0.000022 13.616543 9.885377 14.114758 -11.491532 19.748234 -23.626801 0.897999 -0.549887 5.856337 -0.000001 0.000000 -0.000000 2.412680 -11.491596 12.181239 0.480059 2.530420 -21.481350 -0.000000 0.000000 -0.000005 0.155522 -3.460730 2.453309 1.518865 4.318653 -38.738722 -0.000002 -0.000001 0.000002 5.363067 12.049310 -26.968578 2.553230 5.354831 -50.959679 -0.000004 -0.000003 -0.000001 11.627811 15.114737 -43.150946 1.491019 0.197690 -38.560588 -0.000002 0.000000 0.000002 -0.000000 0.000004 -0.000002 0.716757 6.150855 4.249231 15.562880 -18.976053 54.149907 0.000000 115.107730 0.000007 16.578319 4.891455 -34.270379 -5.839589 -5.652339 27.441453 -2.292566 -6.132263 -9.632944 -0.000004 -0.000001 0.000001 3.760324 12.181974 -18.101063 0.284864 -1.973616 16.425107 -0.000001 -0.000001 -0.000000 -0.745180 9.377341 5.023302 0.656331 -2.953821 25.049994 -0.000000 0.000000 -0.000000 1.284341 -4.237304 28.577068 3.382940 -5.967633 59.066089 -0.000000 -0.000000 -0.000001 1.086564 -4.003184 45.068143 2.058623 -4.942579 45.203380 -0.000004 -0.000000 -0.000002 -0.000000 0.000000 -0.000000 -0.000000 0.000000 -0.000000 -0.000000 0.000000 -0.000000 -0.000000 0.000000 -0.000000 -0.000000 0.000000 -0.000000 -0.000000 0.000000 -0.000000 0.000000 0.000000 -0.000000 -0.000000 0.000000 -0.000000 -0.000000 0.000000 -0.000000 0.000000 0.000000 -0.000000 -0.000000 0.000000 -0.000001 -0.000000 0.000000 -0.000001 -0.000000 -0.000000 -0.000000 
-0.708115 71.015251 1.913055 -12.575525 1.771284 -6.901269 0.000001 -0.000000 0.000000 -23.028000 2.307616 19.221068 67.169931 -5.962672 3.097629 -32.267388 2.040663 -6.706150 0.000000 -0.000000 -0.000000 0.000000 -0.000000 -0.000000 -0.000004 -0.000000 -0.000000 -19.350916 -8.886257 -5.651826 61.657907 1.415530 1.957803 -28.702104 -1.374467 4.718571 0.000000 0.000000 0.000000 0.000000 0.000000 0.000000 0.000001 -0.000000 -0.000001 7.520829 -2.212790 -4.034352 2.544804 -0.309607 0.698397 2.554397 -0.277154 0.690928 8.934430 -0.073556 2.696185 2.741664 1.124200 3.314865 0.000002 -0.000000 0.000000 0.000002 -0.000000 0.000000 0.000002 -0.000000 0.000000 0.504641 -1.349956 -5.114509 -4.515765 11.466792 -50.764131 0.000024 -123.066567 0.000032 12.523347 10.080501 13.936872 -29.937583 21.022870 -16.718573 1.715131 -0.766463 4.893425 -0.000001 -0.000001 0.000001 1.826291 -10.536893 9.919577 0.435247 2.413568 -20.442514 0.000003 -0.000001 -0.000004 -0.122523 -1.658848 -4.115568 2.514096 5.322983 -50.538745 -0.000001 -0.000000 0.000000 6.097532 10.453363 -36.561408 3.043643 5.716011 -56.040165 -0.000000 0.000000 -0.000000 12.520017 17.033935 -41.049229 2.524727 1.243278 -50.780496 0.000001 -0.000003 0.000004 -0.000000 0.000001 0.000000 0.716317 6.174351 4.314547 15.597242 -19.073395 54.152516 0.000037 115.446330 -0.000032 14.932380 4.848019 -33.813149 -11.156136 -1.731400 31.613298 2.843492 -3.688221 -4.758058 -0.000007 -0.000002 0.000001 3.799001 12.217727 -18.329443 0.279247 -1.954442 16.261185 -0.000002 0.000000 0.000002 -1.749786 7.959006 11.992984 0.958172 -3.527380 30.385428 -0.000001 0.000003 -0.000001 1.113558 -3.836203 36.047720 3.778937 -6.186496 62.805072 -0.000001 -0.000000 0.000000 0.005219 -3.085093 48.111771 3.074414 -5.772551 56.049837 0.000001 0.000001 0.000002 -0.000000 0.000000 0.000000 0.000000 0.000000 -0.000001 0.000000 0.000000 -0.000001 0.000000 0.000000 -0.000001 0.000000 0.000000 -0.000001 0.000000 0.000000 0.000000 0.000000 0.000000 0.000000 0.000000 0.000000 -0.000001 0.000000 0.000000 0.000000 0.000000 0.000000 0.000000 -0.000000 0.000000 -0.000001 -0.000000 0.000000 -0.000001 0.000001 -0.000000 0.000000 
-0.690035 71.013588 1.966251 -12.536065 1.748980 -6.884190 -0.000000 -0.000000 0.000000 -23.007193 2.334684 19.203823 67.166646 -5.946556 3.072925 -32.324816 2.039547 -6.692965 0.000000 -0.000000 0.000000 0.000000 -0.000000 -0.000000 0.000001 -0.000000 0.000001 -19.351888 -8.861796 -5.661551 61.666342 1.410850 1.920409 -28.751231 -1.389336 4.760616 0.000000 0.000001 -0.000000 0.000000 0.000001 -0.000000 -0.000002 -0.000001 0.000000 7.559699 -2.221505 -4.050029 2.535277 -0.310624 0.699457 2.544869 -0.278087 0.692037 8.950354 -0.065985 2.688945 2.768276 1.164386 3.290939 0.000000 0.000000 -0.000000 0.000000 0.000000 -0.000000 0.000000 0.000000 -0.000000 0.502797 -1.295850 -5.130961 -4.438400 11.022850 -50.687411 0.000025 -123.213279 0.000027 12.160874 10.872704 13.670022 -45.526865 19.456101 -13.255650 2.196902 -0.850155 4.363135 -0.000000 0.000000 0.000001 0.232138 -9.193752 0.786427 0.440091 2.426486 -20.557213 -0.000003 0.000002 -0.000005 -0.131155 0.663926 -17.645118 3.195997 5.815214 -57.556365 0.000004 -0.000000 0.000000 5.748440 8.660524 -44.441609 3.240407 5.843062 -57.993784 0.000003 -0.000002 -0.000006 12.322165 19.639070 -35.343999 3.014882 1.608281 -55.857349 -0.000000 0.000003 0.000004 -0.000000 -0.000003 0.000002 0.719192 6.239648 4.322641 15.643437 -19.115225 54.186268 0.000023 115.741940 -0.000032 13.055580 4.582750 -33.161924 -19.260707 1.017793 35.615045 6.718421 -1.798001 -1.115966 -0.000004 0.000002 0.000001 3.406026 12.034904 -16.652708 0.278749 -1.952735 16.246407 0.000001 -0.000000 0.000003 -2.690423 6.978694 18.912731 1.521835 -4.346101 38.581369 -0.000000 0.000002 0.000000 1.192076 -4.004332 42.058089 4.074383 -6.328689 65.515284 -0.000001 -0.000000 0.000007 0.259784 -3.361083 48.621593 3.987671 -6.288713 64.726233 -0.000000 0.000000 -0.000003 0.000000 0.000001 0.000000 0.000000 0.000000 0.000001 0.000000 0.000000 0.000001 0.000000 0.000000 0.000001 0.000000 0.000000 0.000001 0.000000 0.000000 0.000001 0.000000 0.000000 -0.000000 0.000000 0.000000 0.000001 0.000000 0.000000 0.000001 0.000000 0.000000 -0.000000 -0.000000 0.000000 0.000000 -0.000000 0.000000 0.000000 -0.000000 -0.000000 0.000000 
